<?xml version="1.0" encoding="utf-8"?>
<!-- Generator: Adobe Illustrator 26.2.1, SVG Export Plug-In . SVG Version: 6.00 Build 0)  -->
<svg version="1.1" id="PAYMENT_ICONS" xmlns="http://www.w3.org/2000/svg" xmlns:xlink="http://www.w3.org/1999/xlink" x="0px"
	 y="0px" viewBox="0 0 755.9 203" style="enable-background:new 0 0 755.9 203;" xml:space="preserve">
<style type="text/css">
	.st0{opacity:0.5;fill-rule:evenodd;clip-rule:evenodd;fill:#C4C4C4;enable-background:new    ;}
	.st1{opacity:0.5;fill:#C4C4C4;enable-background:new    ;}
	.st2{opacity:0.5;}
	.st3{fill:#C4C4C4;}
	.st4{fill:#BCBCBC;}
	.st5{fill:#A5A5A5;}
	.st6{fill:#AAAAAA;}
</style>
<path class="st0" d="M618.2,35.5v-2.4h-9.5V45h9.5v-2.4h-6.6v-2.5h6.4v-2.4h-6.4v-2.2L618.2,35.5L618.2,35.5z M631.6,36.3
	c0-1.4-0.5-2.1-1.4-2.6s-2-0.5-3.4-0.5h-6.5v11.9h2.8v-4.3h3.1c1,0,1.6,0.1,2.1,0.5c0.5,0.5,0.5,1.6,0.5,2.4v1.5h2.9v-2.4
	c0-1.1-0.1-1.5-0.5-2.2c-0.3-0.4-0.8-0.7-1.4-1C630.9,38.8,631.6,37.5,631.6,36.3L631.6,36.3z M627.9,37.9c-0.4,0.3-0.8,0.3-1.4,0.3
	H623v-2.6h3.4c0.5,0,1,0,1.4,0.2s0.6,0.5,0.6,1C628.6,37.2,628.2,37.7,627.9,37.9z M580.4,42.2h5.9l1.1,2.6h5.7v-9.2l4.1,9.3h2.5
	l4.1-9.3v9.3h2.9v-12H602l-3.4,8.1l-3.6-8.1h-4.6v11.2l-4.8-11.2h-4.2L576.6,44v0.7h2.7L580.4,42.2L580.4,42.2z M583.2,35l1.9,4.7
	h-3.8C581.4,39.8,583.2,35,583.2,35z M643.4,35.5h2.7V33h-2.7c-2,0-3.4,0.5-4.3,1.4c-1.2,1.3-1.5,2.9-1.5,4.6c0,2.2,0.5,3.5,1.5,4.5
	c0.8,1.1,2.2,1.4,4.1,1.4h3.3l1.1-2.6h5.9l1.1,2.6h5.8V36l5.3,8.9h4V33.1h-2.9v8.2l-5-8.2h-4.3v11.2l-4.8-11.2h-4.3l-4,9.3h-1.3
	c-0.7,0-1.5-0.2-2-0.6c-0.5-0.6-0.8-1.5-0.8-2.8s0.4-2.2,0.8-2.7C641.9,35.7,642.4,35.5,643.4,35.5L643.4,35.5z M650.5,35l2,4.7
	h-3.9L650.5,35L650.5,35z M633.2,33h2.9v11.9h-2.9V33z M643.8,56.6c0-1.4-0.5-2.1-1.4-2.6s-2-0.5-3.4-0.5h-6.5v11.8h2.9V61h3.1
	c1,0,1.7,0.1,2.1,0.5c0.5,0.5,0.5,1.6,0.5,2.4v1.4h2.9v-2.4c0-1-0.1-1.5-0.5-2.2c-0.4-0.5-0.8-0.8-1.4-1
	C642.5,59.4,643.8,58.5,643.8,56.6L643.8,56.6z M640.1,58.3c-0.4,0.2-0.8,0.3-1.4,0.3h-3.4V56h3.5c0.5,0,1,0,1.4,0.2
	s0.5,0.5,0.5,1.1C640.7,57.7,640.4,58.1,640.1,58.3L640.1,58.3z M626.2,53.5h-9.1l-3.6,3.9l-3.5-3.9h-11.3v11.9H610l3.6-3.9l3.5,3.9
	h5.5v-4h3.5c2.4,0,4.9-0.6,4.9-4C631,54.1,628.6,53.5,626.2,53.5L626.2,53.5z M608.6,62.8h-7v-2.4h6.2V58h-6.2v-2.2h7.2l3.1,3.4
	L608.6,62.8L608.6,62.8z M619.8,64.1l-4.3-4.8l4.3-4.7V64.1z M626.2,58.9h-3.6v-3h3.7c1,0,1.7,0.5,1.7,1.4
	C628,58.3,627.2,58.9,626.2,58.9L626.2,58.9z M654.8,55.9v-2.4h-9.4v11.8h9.4v-2.4h-6.6v-2.4h6.4v-2.4h-6.4v-2.2L654.8,55.9z
	 M676.9,59.3c-0.1-0.1-0.2-0.2-0.3-0.3c-0.6-0.6-1.6-0.9-3.2-1h-1.5c-0.5,0-0.8,0-1.1-0.2c-0.4-0.1-0.6-0.5-0.6-0.9s0.1-0.6,0.5-0.8
	c0.3-0.2,0.6-0.2,1.2-0.2h5.2v-2.5h-5.6c-3,0-4.1,1.8-4.1,3.5c0,3.7,3.4,3.5,6,3.7c0.5,0,0.8,0.1,1,0.3s0.4,0.5,0.4,0.8
	s-0.1,0.5-0.4,0.8c-0.2,0.2-0.6,0.3-1.2,0.3h-5.5v2.4h5.4c1.8,0,3.2-0.5,3.9-1.5c0.4-0.5,0.6-1.4,0.6-2.2
	C677.6,60.5,677.2,59.9,676.9,59.3L676.9,59.3z M672.8,67.6h-7.3v-1.1c-0.8,0.7-2.4,1.1-3.9,1.1h-23.1v-3.8c0-0.5,0-0.5-0.5-0.5
	h-0.4v4.3H630v-4.5c-1.3,0.5-2.7,0.6-3.9,0.5h-0.9v3.9H616l-2.4-2.4l-2.4,2.5h-15V51.1h15.2l2.2,2.5l2.4-2.5h10.2c1.2,0,3.1,0.1,4,1
	v-1h9.1c0.8,0,2.7,0.2,3.8,1v-1h13.9v1c0.6-0.6,2.2-1,3.4-1h7.8v1c0.8-0.5,2-1,3.5-1h5.3V15H576.5v22.8l3.1-7.1h7.4l1,2v-2h8.6
	l1.9,4.3l1.9-4.3h27.4c1.3,0,2.4,0.3,3.2,1v-1h7.5v1c1.3-0.7,2.9-1,4.7-1h10.9l1,2v-2h8.1l1.1,2v-2h7.9v16.5h-8l-1.4-2.5v2.5h-10
	l-1.1-2.6h-2.4l-1.1,2.6H643c-2,0-3.5-0.5-4.5-1v1h-12.2v-3.7c0-0.5-0.1-0.5-0.5-0.5h-0.5v4.3h-23.6v-2l-0.8,2H596l-0.8-2v1.8h-9.6
	l-1.1-2.6h-2.4l-1.1,2.6h-4.5v35.2h100.3V66.7C675.8,67.4,674.2,67.6,672.8,67.6L672.8,67.6z M662,62.7h-5.5v2.5h5.5
	c2.9,0,4.4-1.2,4.4-3.7c0-1.2-0.3-1.9-0.8-2.5c-0.6-0.6-1.7-0.9-3.3-1h-1.5c-0.5,0-0.8,0-1.1-0.2c-0.4-0.1-0.6-0.5-0.6-0.9
	s0.1-0.6,0.5-0.8c0.3-0.2,0.6-0.2,1.2-0.2h5.2v-2.5h-5.7c-3,0-4.1,1.8-4.1,3.5c0,3.7,3.4,3.6,6,3.7c0.5,0,0.8,0.1,1,0.3
	s0.4,0.5,0.4,0.8s-0.1,0.5-0.4,0.8C662.9,62.7,662.5,62.7,662,62.7z"/>
<path class="st0" d="M142.8,37.7h2.7c-1.8-5.8-5-11.1-9.4-15.3c5.9-4.8,13.2-7.4,20.8-7.4c18.2,0,33,14.8,33,33s-14.8,33-33,33
	c-7.6,0-14.9-2.6-20.8-7.4c4.4-4.3,7.6-9.5,9.4-15.3h-2.7c-1.7,5.2-4.7,9.9-8.7,13.7c-4-3.8-6.9-8.4-8.6-13.7h-2.8
	c1.7,5.8,5,11,9.3,15.3c-5.7,4.6-12.9,7.4-20.6,7.4c-18.2,0-33-14.8-33-33s14.8-33,33-33c7.9,0,15,2.8,20.7,7.4
	c-4.3,4.3-7.6,9.5-9.3,15.3h2.7c1.7-5.2,4.6-9.9,8.6-13.6C138,27.8,140.9,32.4,142.8,37.7L142.8,37.7z M152.8,56.4l0.6-3.8
	c-1.1,0.5-2.2,0.8-3,0.8c-2.1,0-3.4-1.5-3.4-4.1c0-3.6,1.9-6.2,4.5-6.2c1,0,1.9,0.3,3.2,0.9l0.6-3.6l-0.9-0.4l-1.4-0.4
	c-0.5-0.1-1.1-0.2-1.6-0.2c-4.7,0-8,4.2-8,10.1c0,4.4,2.4,7.2,6.2,7.2C150.6,56.9,151.4,56.8,152.8,56.4L152.8,56.4z M93.1,56.6h3.5
	L99.3,40h-5.5l-3.4,10.3L90.2,40h-5.1l-2.7,16.6h3.3l2.2-12.7l0.3,12.7h2.4l4.5-12.8L93.1,56.6z M179,56.6h3.4l2.7-16.6h-3.5
	l-0.8,4.7c-1-1.3-2-1.9-3.4-1.9c-3.1,0-5.7,3.8-5.7,8.3c0,3.4,1.7,5.5,4.3,5.5c1.3,0,2.3-0.5,3.3-1.4L179,56.6z M123.6,56.4l0.5-3
	c-0.2,0.1-0.5,0.1-1,0.1c-0.8,0-1.2-0.3-1.2-1c0-0.2,0-0.4,0.1-0.5l1-5.6h1.8l0.5-3.4h-1.8l0.4-2h-3.5l-1.5,9.2l-0.2,1.1l-0.3,1.4
	c-0.1,0.4-0.1,0.8-0.1,1.2c0,2,1,3,2.8,3C121.9,56.9,122.6,56.8,123.6,56.4z M134.4,56.3l0.5-3.4c-1.1,0.5-2.4,0.9-3.6,0.8
	c-2,0-3.1-0.8-3.1-2.4c0-0.1,0-0.2,0.1-0.4h7c0.4-1.4,0.5-2.4,0.5-3.4c0-3-1.9-4.9-4.8-4.9c-3.5,0-6.2,3.4-6.2,8.1c0,4,2,6.1,6,6.1
	C132.1,56.9,133.2,56.7,134.4,56.3z M108.1,55.1l0.1-0.8l0.8-4.8c0.2-1.5,0.3-2,0.3-2.7c0-2.6-1.6-3.9-4.7-3.9
	c-1.3,0-2.4,0.2-4.3,0.6l-0.5,3.1l0.4-0.1l0.5-0.2c0.8-0.3,1.9-0.4,2.9-0.4c1.6,0,2.3,0.4,2.3,1.3c0,0.2,0,0.4-0.1,0.8l-1.4-0.1
	c-3.9,0-6.2,1.9-6.2,5.3c0,2.2,1.3,3.6,3.2,3.6c1.6,0,2.8-0.5,3.7-1.6l-0.1,1.4h2.9l0.1-0.4l0.1-0.5L108.1,55.1z M108.9,56.5
	l0.6,0.1c0.2,0.1,0.5,0.1,1,0.1c0.8,0.1,1.4,0.1,1.9,0.1c3.7,0,5.4-1.4,5.4-4.5c0-1.9-0.7-2.9-2.4-3.8c-1.5-0.6-1.7-0.8-1.7-1.4
	c0-0.7,0.6-1.1,1.7-1.1c0.6,0,1.6,0.1,2.5,0.2l0.5-3.1c-1-0.2-2.1-0.3-3.1-0.3c-3.9,0-5.3,2.1-5.3,4.5c0,1.7,0.8,2.9,2.6,3.8
	c1.4,0.6,1.7,0.9,1.7,1.4c0,0.8-0.6,1.3-2,1.3c-1.1,0-2-0.2-3.2-0.5l-0.5,3.1L108.9,56.5z M163.9,54.3l0.7-4.8
	c0.3-1.5,0.3-2,0.3-2.7c0-2.6-1.5-3.9-4.6-3.9c-1.3,0-2.4,0.2-4.3,0.6l-0.5,3.1l0.4-0.1l0.5-0.2c0.8-0.3,2-0.4,3-0.4
	c1.6,0,2.3,0.4,2.3,1.3c0,0.2-0.1,0.4-0.2,0.8c-0.5-0.1-0.9-0.1-1.4-0.1c-3.9,0-6.2,1.9-6.2,5.3c0,2.2,1.3,3.6,3.2,3.6
	c1.6,0,2.8-0.5,3.7-1.6l-0.1,1.4h2.9v-0.4l0.1-0.5l0.1-0.6L163.9,54.3z M135.8,56.6h3.5c1.3-8.2,1.6-9.7,3.4-9.7h0.3
	c0.4-1.6,0.8-2.8,1.4-3.9l-0.1-0.1h-0.4c-1.2,0-1.8,0.5-2.9,2.2l0.4-2.1h-3.2L135.8,56.6z M164.8,56.6h3.5c1.3-8.2,1.6-9.7,3.4-9.7
	h0.2c0.4-1.6,0.8-2.8,1.4-3.9l-0.1-0.1h-0.4c-1.2,0-1.8,0.5-2.9,2.2l0.4-2.1h-3.2L164.8,56.6z M132.4,48.3h-3.9
	c0.4-1.5,1.1-2.4,2.3-2.4c1.1,0,1.7,0.6,1.7,1.7L132.4,48.3L132.4,48.3z M178,46.3c1.3,0,1.9,0.9,1.9,2.6c0,2.6-1.1,4.5-2.7,4.5
	c-1.3,0-1.9-0.9-1.9-2.7C175.3,48.1,176.4,46.3,178,46.3L178,46.3z M101.6,52.6c0-1.4,1-2.1,3-2.1l0.8,0.1c-0.1,2-1.1,3.4-2.5,3.4
	C102.1,54,101.6,53.4,101.6,52.6L101.6,52.6z M157.2,52.6c0-1.4,1-2.1,3.1-2.1l0.8,0.1c-0.1,2-1.1,3.4-2.5,3.4
	C157.8,54,157.2,53.4,157.2,52.6L157.2,52.6z"/>
<path class="st0" d="M328.8,38.2l-0.9-0.5c-1.9-0.8-4.4-1.6-7.8-1.5c-4.1,0-6,1.8-6,3.4c0,1.9,2.2,3.2,5.9,5c6,2.9,8.8,6.3,8.8,11
	c-0.1,8.3-7.2,13.8-18.1,13.8c-4.7-0.1-9.1-1-11.6-2.2l1.4-9.1l1.4,0.6c3.4,1.5,5.6,2.1,9.8,2.1c3,0,6.2-1.3,6.2-3.9
	c0-1.8-1.4-3-5.4-5c-4-1.9-9.1-5.2-9.1-11c0.1-7.9,7.3-13.3,17.6-13.3c4.1,0,7.2,0.9,9.3,1.7L328.8,38.2z M281.9,68.8l6.5-40.3h10.4
	l-6.5,40.3H281.9L281.9,68.8z M258.2,31.9l3.6,18.6c-4.3-11.9-13.8-18.2-25.3-21.1l0.1-0.8h16.8C255.8,28.6,257.6,29.3,258.2,31.9
	L258.2,31.9z M273.1,28.5h11l-16.4,40.2h-11l-8.5-32.1c6.1,2.4,11.4,7.9,13.6,13.7l1.1,5.6L273.1,28.5z M356.8,28.5l8.4,40.3h-9.7
	l-1.3-6.1h-13.3l-2.2,6.1h-11l15.5-36.9c1.1-2.6,3-3.4,5.4-3.4H356.8L356.8,28.5z M350.1,42.9l-0.7-3.4l-1.4,3.8c0,0-3.3,9-4.2,11.2
	h8.6L350.1,42.9L350.1,42.9z"/>
<path class="st0" d="M475.4,38.5h2.7c-1.7-5.8-5-11-9.3-15.1c5.8-4.7,13-7.3,20.5-7.3c17.9,0,32.5,14.6,32.5,32.5
	s-14.7,32.5-32.6,32.5c-7.5,0-14.8-2.5-20.5-7.3c4.3-4.2,7.5-9.4,9.3-15.1h-2.7c-1.7,5.2-4.6,9.8-8.5,13.5
	c-3.9-3.7-6.8-8.3-8.5-13.5h-2.7c1.7,5.7,4.9,11,9.2,15.1c-5.6,4.5-12.7,7.3-20.4,7.3c-17.9,0-32.5-14.6-32.5-32.5
	s14.5-32.5,32.4-32.5c7.8,0,14.9,2.8,20.4,7.3c-4.3,4.2-7.4,9.3-9.2,15.1h2.7c1.6-5.1,4.6-9.7,8.5-13.4
	C470.8,28.7,473.6,33.3,475.4,38.5L475.4,38.5z M486.4,55.9l0.5-3c-0.3,0.1-0.6,0.1-1.1,0.1c-1,0-1.4-0.3-1.4-1l0.1-0.5l1.1-5.5h2.1
	l0.5-3.3h-2.1l0.5-3.1h-4l-1.8,10.1l-0.2,1.1l-0.3,1.3c-0.1,0.5-0.1,0.8-0.1,1.2c0,1.9,1.1,2.9,3.2,2.9
	C484.5,56.2,485.4,56.2,486.4,55.9L486.4,55.9z M437.9,56.1h4l3.2-16.4h-6.5l-4.4,10.1l-0.4-10.2h-6.2L424.5,56h3.6l2.4-12.5
	l0.6,12.5h3.6l5.4-12.6L437.9,56.1z M510.5,50c0.1-0.8,0.1-0.8,0.1-1.6c0-3.4-2.2-6-6.3-6c-4.8,0-7.9,3.2-7.9,8
	c0,3.4,1.8,6.2,6.3,6.2C506.9,56.4,509.9,54.4,510.5,50z M467.9,55.7l0.6-3.4c-1.4,0.5-2.7,0.8-4.2,0.8c-2.4,0-3.5-0.8-3.5-2.4v-0.5
	h8c0.4-1.4,0.5-2.4,0.5-3.3c0-3-2.1-4.9-5.4-4.9c-4,0-7,3.4-7,8c0,3.9,2.4,6,6.8,6C465.1,56.2,466.5,56.2,467.9,55.7L467.9,55.7z
	 M455.1,53.7l0.8-4.7c0.3-1.4,0.4-2,0.4-2.6c0-2.5-1.8-3.9-5.3-3.9c-1.4,0-2.8,0.2-4.8,0.7l-0.5,3l0.4-0.1l0.5-0.2
	c0.9-0.3,2.2-0.4,3.4-0.4c1.9,0,2.5,0.4,2.5,1.2c0,0.3,0,0.5-0.2,0.9l-1.6-0.1c-4.4,0-7.1,1.9-7.1,5.2c0,2.2,1.4,3.6,3.6,3.6
	c1.8,0,3.2-0.5,4.2-1.6l-0.1,1.4h3.4v-0.4l0.1-0.5l0.1-0.6L455.1,53.7z M479.6,45.7l0.5-3.1c-1.2-0.2-2.4-0.3-3.5-0.3
	c-4.5,0-6.1,2.1-6.1,4.5c0,1.7,0.9,2.8,3.1,3.7c1.6,0.6,1.9,0.9,1.9,1.4c0,0.8-0.7,1.2-2.4,1.2c-1.2,0-2.4-0.2-3.6-0.5l-0.5,3.1h0.2
	l0.7,0.1l1.1,0.1c1,0.1,1.7,0.1,2.3,0.1c4.3,0,6.2-1.4,6.2-4.4c0-1.8-0.8-2.9-2.8-3.7c-1.7-0.6-1.9-0.8-1.9-1.4c0-0.7,0.6-1.1,2-1.1
	C477.5,45.6,478.6,45.6,479.6,45.7L479.6,45.7z M487.8,56.1h4c1.4-8.2,2.1-9.6,4-9.6h0.5l0.5,0.1l1.4-3.8l-0.5-0.2l-0.4-0.1h-0.4
	c-1.3,0-2.3,0.5-3.4,2.2l0.4-2h-3.6L487.8,56.1z M465.9,47.8h-4.4c0.4-1.5,1.3-2.4,2.5-2.4s1.9,0.6,1.9,1.7V47.8z M504.2,45.6
	c1.6,0,2.2,1.4,2.2,2.7c0,0.5-0.1,1.1-0.1,1.6c-0.4,2.1-2.2,3.3-3.1,3.3c-1.4,0-2.3-1.2-2.3-3C500.9,48,502.2,45.6,504.2,45.6
	L504.2,45.6z M447.5,52.1c0-1.4,1.2-2,3.4-2l0.9,0.1c-0.1,2-1.3,3.4-2.9,3.4C448.1,53.4,447.5,52.9,447.5,52.1L447.5,52.1z"/>
<path class="st1" d="M200.7,117.1c2.1-2.7,3.6-6.3,3.1-9.8c-3.1,0.1-6.9,2.1-9.1,4.6c-1.9,2.2-3.7,6-3.3,9.4
	C195,121.8,198.5,119.8,200.7,117.1 M203.8,122.2c-5.1-0.3-9.4,2.8-11.8,2.8c-2.4,0-6.1-2.7-10.1-2.7c-5.2,0.1-10,3-12.7,7.7
	c-5.4,9.4-1.5,23.2,3.9,30.8c2.5,3.7,5.7,7.9,9.7,7.7c3.9-0.1,5.4-2.5,10-2.5c4.6,0,6,2.5,10.1,2.4c4.2-0.1,6.9-3.7,9.4-7.6
	c3-4.3,4.2-8.5,4.2-8.6c-0.1-0.1-8.2-3.1-8.2-12.4c-0.1-7.7,6.3-11.5,6.6-11.6C211.4,123,205.8,122.4,203.8,122.2"/>
<g class="st2">
	<path class="st3" d="M247.6,111.6c11,0,18.6,7.6,18.6,18.5c0,11-7.7,18.6-18.9,18.6h-12.1v19.2h-8.8v-56.3H247.6z M235.3,141.4h10
		c7.6,0,11.9-4.2,11.9-11.2c0-7.1-4.3-11.2-11.9-11.2h-10.1L235.3,141.4L235.3,141.4L235.3,141.4z M268.5,156.5
		c0-7.1,5.5-11.6,15.3-12.2l11.3-0.6v-3.1c0-4.6-3.1-7.3-8.2-7.3c-4.9,0-7.9,2.4-8.6,6h-8c0.4-7.4,6.9-13,17-13
		c10,0,16.4,5.2,16.4,13.6v28.3h-8v-6.7h-0.1c-2.4,4.6-7.6,7.4-13,7.4C274.1,168.8,268.5,163.8,268.5,156.5z M295.1,152.7v-3.3
		L285,150c-5.1,0.3-7.9,2.5-7.9,6.1s3,6,7.4,6C290.5,162.1,295.1,158.1,295.1,152.7L295.1,152.7z M311.1,183.3v-6.9
		c0.6,0.1,2.1,0.1,2.7,0.1c3.9,0,6-1.6,7.3-5.8c0-0.1,0.7-2.5,0.7-2.5l-14.9-41.1h9.1l10.4,33.5h0.1l10.4-33.5h8.9l-15.3,43.3
		c-3.6,10-7.6,13.1-16.1,13.1C313.9,183.4,311.8,183.4,311.1,183.3L311.1,183.3z"/>
</g>
<g class="st2">
	<path class="st3" d="M494.2,146.5v20.8h-6.6v-51.5h17.5c4.2-0.1,8.3,1.5,11.4,4.5c3.1,2.8,4.8,6.7,4.7,10.8
		c0.1,4.1-1.6,8.1-4.7,10.9c-3.1,2.9-6.9,4.4-11.3,4.4h-11V146.5z M494.2,122.2v18h11.1c2.5,0.1,4.8-0.9,6.5-2.7
		c3.5-3.4,3.5-8.9,0.2-12.4l-0.2-0.2c-1.7-1.8-4.1-2.8-6.5-2.7H494.2z M536.5,131c4.9,0,8.7,1.3,11.6,3.9c2.8,2.6,4.2,6.2,4.2,10.8
		v21.6H546v-4.9h-0.3c-2.8,4-6.4,6-10.9,6c-3.9,0-7.1-1.2-9.7-3.5c-2.5-2.1-4-5.3-3.9-8.6c0-3.7,1.4-6.5,4.1-8.7
		c2.8-2.2,6.4-3.2,11-3.2c3.9,0,7.1,0.7,9.7,2.1V145c0-2.3-1-4.4-2.7-5.8c-1.8-1.6-4-2.4-6.4-2.4c-3.7,0-6.6,1.6-8.8,4.7l-5.8-3.7
		C525.4,133.3,530.2,131,536.5,131L536.5,131z M527.9,156.5c0,1.7,0.8,3.3,2.2,4.3c1.5,1.2,3.3,1.8,5.1,1.7c2.8,0,5.5-1.1,7.4-3.1
		c2.2-2.1,3.3-4.5,3.3-7.3c-2.1-1.6-4.9-2.5-8.6-2.5c-2.7,0-4.9,0.7-6.7,1.9C528.8,153,527.9,154.6,527.9,156.5z M588.6,132.1
		l-22.1,50.8h-6.8l8.2-17.7l-14.5-33h7.2l10.5,25.3h0.2l10.2-25.3L588.6,132.1z"/>
	<path class="st4" d="M474.4,142c0-2-0.2-4-0.5-6H446v11.3h16c-0.7,3.7-2.8,6.9-5.9,9v7.4h9.5C471.2,158.6,474.4,151,474.4,142
		L474.4,142z"/>
	<path class="st5" d="M446.1,170.9c8,0,14.7-2.6,19.6-7.1l-9.5-7.4c-2.7,1.8-6.1,2.8-10.1,2.8c-7.7,0-14.3-5.2-16.6-12.2h-9.8v7.6
		C424.7,164.6,434.9,170.9,446.1,170.9z"/>
	<path class="st3" d="M429.5,147c-1.2-3.7-1.2-7.6,0-11.3v-7.6h-9.8c-4.2,8.3-4.2,18.2,0,26.5L429.5,147z"/>
	<path class="st6" d="M446.1,123.4c4.2-0.1,8.3,1.5,11.3,4.4l8.4-8.4c-5.3-5.1-12.4-7.8-19.8-7.7c-11.2,0-21.4,6.3-26.4,16.3
		l9.8,7.6C431.8,128.7,438.3,123.4,446.1,123.4z"/>
</g>
</svg>
